<svg xmlns="http://www.w3.org/2000/svg" viewBox="0 0 64 64">
  <rect width="64" height="64" rx="14" fill="#0A1118" />
  <g fill="none" stroke-linecap="butt" stroke-linejoin="round">
    <path
      d="M28 10H18l-8 8v9l8 8h11v4l-6 6H10v9l6 6h12l8-8v-9l-8-8H17v-5l6-6h13v-9H28Z"
      stroke="#69F0B9"
      stroke-width="6"
    />
    <path
      d="M36 10h10l8 8v9l-8 8H35v4l6 6h13v9l-6 6H36l-8-8v-9l8-8h11v-5l-6-6H28v-9h8Z"
      stroke="#69F0B9"
      stroke-width="6"
    />
    <path
      d="M28 10H18l-8 8v9l8 8h11v4l-6 6H10v9l6 6h12l8-8v-9l-8-8H17v-5l6-6h13v-9H28Z"
      stroke="#0A1118"
      stroke-width="2"
    />
    <path
      d="M36 10h10l8 8v9l-8 8H35v4l6 6h13v9l-6 6H36l-8-8v-9l8-8h11v-5l-6-6H28v-9h8Z"
      stroke="#0A1118"
      stroke-width="2"
    />
  </g>
  <circle cx="24" cy="45" r="3.4" fill="#69F0B9" />
  <circle cx="40" cy="19" r="3.4" fill="#69F0B9" />
  <circle cx="24" cy="45" r="1.25" fill="#0A1118" />
  <circle cx="40" cy="19" r="1.25" fill="#0A1118" />
</svg>
